<svg width="64" height="65" viewBox="0 0 64 65" fill="none" xmlns="http://www.w3.org/2000/svg">
<mask id="mask0_2_160" style="mask-type:luminance" maskUnits="userSpaceOnUse" x="0" y="0" width="64" height="65">
<path d="M64 0.5H0V64.5H64V0.5Z" fill="white"/>
</mask>
<g mask="url(#mask0_2_160)">
<path d="M41.0936 50.0731C40.0269 50.0731 39.1469 49.1931 39.1469 48.1264C39.1469 47.0597 40.0269 46.1797 41.0936 46.1797C48.6136 46.1797 54.7469 40.0464 54.7469 32.5264C54.7469 25.0065 48.6136 18.8731 41.0936 18.8731C33.5736 18.8731 27.4403 25.0065 27.4403 32.5264C27.4403 33.5931 26.5602 34.4731 25.4935 34.4731C24.4269 34.4731 23.5469 33.5931 23.5469 32.5264C23.5469 22.8465 31.4136 14.9531 41.1203 14.9531C50.8269 14.9531 58.6669 22.8198 58.6669 32.4997C58.6669 42.1797 50.8003 50.0731 41.0936 50.0731Z" fill="#14FFB9"/>
<path d="M22.9066 14.9271C23.9733 14.9271 24.8533 15.8071 24.8533 16.8738C24.8533 17.9405 23.9733 18.8205 22.9066 18.8205C15.3866 18.8205 9.25331 24.9538 9.25331 32.4739C9.25331 39.9939 15.3866 46.1272 22.9066 46.1272C30.4266 46.1272 36.56 39.9939 36.56 32.4739C36.56 31.4072 37.44 30.5272 38.5066 30.5272C39.5733 30.5272 40.4533 31.4072 40.4533 32.4739C40.4533 42.1539 32.5866 50.0472 22.88 50.0472C13.1733 50.0472 5.33331 42.1806 5.33331 32.5006C5.33331 22.8205 13.2 14.9271 22.9066 14.9271Z" fill="#14FFB9"/>
</g>
</svg>
