<svg width="40" height="41" viewBox="0 0 40 41" fill="none" xmlns="http://www.w3.org/2000/svg">
<path d="M33.3333 7.16675H6.66665C4.83331 7.16675 3.34998 8.66675 3.34998 10.5001L3.33331 30.5001C3.33331 32.3334 4.83331 33.8334 6.66665 33.8334H33.3333C35.1666 33.8334 36.6666 32.3334 36.6666 30.5001V10.5001C36.6666 8.66675 35.1666 7.16675 33.3333 7.16675ZM32.6666 14.2501L20.8833 21.6167C20.35 21.9501 19.65 21.9501 19.1166 21.6167L7.33331 14.2501C7.16619 14.1563 7.01984 14.0295 6.90313 13.8775C6.78641 13.7255 6.70175 13.5514 6.65427 13.3657C6.60679 13.18 6.59748 12.9866 6.62691 12.7973C6.65633 12.6079 6.72387 12.4264 6.82545 12.2639C6.92702 12.1014 7.06052 11.9612 7.21786 11.8517C7.37519 11.7423 7.5531 11.6659 7.74081 11.6272C7.92851 11.5886 8.12212 11.5884 8.3099 11.6267C8.49769 11.665 8.67575 11.741 8.83331 11.8501L20 18.8334L31.1666 11.8501C31.3242 11.741 31.5023 11.665 31.6901 11.6267C31.8778 11.5884 32.0714 11.5886 32.2592 11.6272C32.4469 11.6659 32.6248 11.7423 32.7821 11.8517C32.9394 11.9612 33.0729 12.1014 33.1745 12.2639C33.2761 12.4264 33.3436 12.6079 33.3731 12.7973C33.4025 12.9866 33.3932 13.18 33.3457 13.3657C33.2982 13.5514 33.2136 13.7255 33.0968 13.8775C32.9801 14.0295 32.8338 14.1563 32.6666 14.2501Z" fill="#14FFB9"/>
</svg>
