<svg width="64" height="65" viewBox="0 0 64 65" fill="none" xmlns="http://www.w3.org/2000/svg">
<g clip-path="url(#clip0_2_152)">
<mask id="mask0_2_152" style="mask-type:luminance" maskUnits="userSpaceOnUse" x="0" y="0" width="64" height="65">
<path d="M64 0.5H0V64.5H64V0.5Z" fill="white"/>
</mask>
<g mask="url(#mask0_2_152)">
<path d="M43.3066 5.83337H20.6933C13.3333 5.83337 10.6666 8.50004 10.6666 15.9934V49.0067C10.6666 56.5 13.3333 59.1667 20.6933 59.1667H43.28C50.6666 59.1667 53.3333 56.5 53.3333 49.0067V15.9934C53.3333 8.50004 50.6666 5.83337 43.3066 5.83337ZM32 51.9667C29.44 51.9667 27.3333 49.86 27.3333 47.3C27.3333 44.74 29.44 42.6334 32 42.6334C34.56 42.6334 36.6666 44.74 36.6666 47.3C36.6666 49.86 34.56 51.9667 32 51.9667ZM37.3333 17.1667H26.6666C25.5733 17.1667 24.6666 16.26 24.6666 15.1667C24.6666 14.0734 25.5733 13.1667 26.6666 13.1667H37.3333C38.4266 13.1667 39.3333 14.0734 39.3333 15.1667C39.3333 16.26 38.4266 17.1667 37.3333 17.1667Z" fill="#14FFB9"/>
</g>
</g>
<defs>
<clipPath id="clip0_2_152">
<rect width="64" height="64" fill="white" transform="translate(0 0.5)"/>
</clipPath>
</defs>
</svg>
