<svg width="64" height="65" viewBox="0 0 64 65" fill="none" xmlns="http://www.w3.org/2000/svg">
<g clip-path="url(#clip0_2_144)">
<mask id="mask0_2_144" style="mask-type:luminance" maskUnits="userSpaceOnUse" x="0" y="0" width="64" height="65">
<path d="M64 0.5H0V64.5H64V0.5Z" fill="white"/>
</mask>
<g mask="url(#mask0_2_144)">
<path d="M20.7999 59.5672C13.7333 59.5672 7.97327 53.8339 7.97327 46.7405V39.1672C7.97327 37.3805 9.73327 36.1805 11.4133 36.7672C12.1066 37.0072 12.7999 37.1672 13.5199 37.2739C13.8399 37.3272 14.1599 37.3805 14.4799 37.3805C14.8799 37.4339 15.3066 37.4605 15.7066 37.4605C18.6666 37.4605 21.5999 36.3672 23.9199 34.4739C26.1333 36.3672 28.9866 37.4605 32.0266 37.4605C35.0666 37.4605 37.8933 36.4205 40.1066 34.5005C42.4 36.3672 45.28 37.4605 48.2133 37.4605C48.6666 37.4605 49.1466 37.4339 49.5733 37.3805C49.8933 37.3539 50.16 37.3272 50.4533 37.2739C51.2533 37.1672 51.9733 36.9539 52.6933 36.7139C54.3466 36.1539 56.08 37.3805 56.08 39.1139V46.7405C56.08 53.8072 50.3466 59.5672 43.2533 59.5672H20.7999Z" fill="#14FFB9"/>
<path d="M58.6136 23.4056L57.8669 16.3123C56.8003 8.57892 53.2803 5.43225 45.7603 5.43225H39.7336H35.9469H28.1603H24.3469H18.1869C10.6669 5.43225 7.17359 8.57892 6.08026 16.3923L5.38692 23.4323C5.12026 26.1789 5.86692 28.8456 7.49359 30.9256C9.44026 33.4589 12.4269 34.8989 15.7603 34.8989C18.9869 34.8989 22.0803 33.2722 24.0269 30.6856C25.7603 33.2722 28.7469 34.8989 32.0536 34.8989C35.3603 34.8989 38.2669 33.3522 40.0269 30.7922C42.0003 33.3256 45.0403 34.8989 48.2403 34.8989C51.6536 34.8989 54.7203 33.3789 56.6403 30.7122C58.1869 28.6589 58.8803 26.0723 58.6136 23.4056ZM36.0003 21.1123H34.0003V23.1923C34.0003 24.3123 33.0936 25.1923 32.0003 25.1923C30.9069 25.1923 30.0003 24.3123 30.0003 23.1923V21.1123H28.0003C26.9069 21.1123 26.0003 20.2323 26.0003 19.1123C26.0003 18.0189 26.9069 17.1123 28.0003 17.1123H30.0003V15.2189C30.0003 14.1256 30.9069 13.2189 32.0003 13.2189C33.0936 13.2189 34.0003 14.1256 34.0003 15.2189V17.1123H36.0003C37.0936 17.1123 38.0003 18.0189 38.0003 19.1123C38.0003 20.2323 37.0936 21.1123 36.0003 21.1123Z" fill="#14FFB9"/>
</g>
</g>
<defs>
<clipPath id="clip0_2_144">
<rect width="64" height="64" fill="white" transform="translate(0 0.5)"/>
</clipPath>
</defs>
</svg>
