<svg width="64" height="65" viewBox="0 0 64 65" fill="none" xmlns="http://www.w3.org/2000/svg">
<g clip-path="url(#clip0_2_95)">
<mask id="mask0_2_95" style="mask-type:luminance" maskUnits="userSpaceOnUse" x="0" y="0" width="64" height="65">
<path d="M64 0.5H0V64.5H64V0.5Z" fill="white"/>
</mask>
<g mask="url(#mask0_2_95)">
<path d="M54.8002 25.6709H51.8669C51.4669 25.6709 51.0669 25.7509 50.6936 25.8575L37.3869 12.5509C38.6669 10.8975 38.5602 8.52421 37.0402 7.03087L34.9602 4.95087C33.3869 3.37754 30.6136 3.37754 29.0136 4.95087L26.9336 7.03087C25.4403 8.52421 25.3336 10.8975 26.6136 12.5509L13.3069 25.8575C12.9336 25.7509 12.5336 25.6709 12.1336 25.6709H9.20027C6.88027 25.6709 4.98694 27.5643 4.98694 29.8843V32.8176C4.98694 35.1376 6.88027 37.031 9.20027 37.031H12.1336C14.4536 37.031 16.3469 35.1376 16.3469 32.8176V29.8843C16.3469 29.4843 16.2669 29.0843 16.1603 28.711L29.4669 15.4042C30.1869 15.9642 31.0936 16.2575 32.0002 16.2575C32.9069 16.2575 33.8136 15.9375 34.5602 15.3775L47.8669 28.6843C47.7602 29.0576 47.6802 29.4576 47.6802 29.8576V32.791C47.6802 35.111 49.5736 37.0043 51.8936 37.0043H54.8269C57.1469 37.0043 59.0402 35.111 59.0402 32.791V29.8576C58.9869 27.5376 57.1202 25.6709 54.8002 25.6709Z" fill="#14FFB9"/>
<path d="M42 44.6313L37.6266 48.498H26.2668L21.8934 44.6313C19.3601 42.5513 19.3601 40.9513 21.2801 38.498L28.9866 28.738C29.52 28.0713 30.1336 27.618 30.8269 27.378C31.5466 27.138 32.32 27.138 33.0666 27.378C33.7333 27.618 34.3466 28.0713 34.9066 28.738L42.6133 38.498C44.5333 40.9246 44.4533 42.4446 42 44.6313Z" fill="#14FFB9"/>
<path d="M35.4397 59.1662H28.533C26.0797 59.1662 24.2397 57.1662 24.7197 55.0329L25.5463 51.3262C25.7063 50.5795 26.373 50.0729 27.1197 50.0729H36.853C37.5997 50.0729 38.2397 50.5795 38.4264 51.3262L39.253 55.0329C39.7864 57.2995 38.053 59.1662 35.4397 59.1662Z" fill="#14FFB9"/>
</g>
</g>
<defs>
<clipPath id="clip0_2_95">
<rect width="64" height="64" fill="white" transform="translate(0 0.5)"/>
</clipPath>
</defs>
</svg>
