<svg width="35" height="41" viewBox="0 0 35 41" fill="none" xmlns="http://www.w3.org/2000/svg">
<g clip-path="url(#clip0_2_249)">
<path d="M25.9383 14.9028C28.4919 16.7435 31.6203 17.8266 34.9991 17.8266V11.2707C34.3596 11.271 33.7218 11.2036 33.0962 11.0699V16.2303C29.7178 16.2303 26.5898 15.1474 24.0356 13.3068V26.6856C24.0356 33.3784 18.6549 38.8035 12.018 38.8035C9.54163 38.8035 7.23983 38.0486 5.32782 36.7539C7.51012 39.0039 10.5535 40.3997 13.9203 40.3997C20.5577 40.3997 25.9386 34.9746 25.9386 28.2815V14.9028H25.9383ZM28.2858 8.28877C26.9806 6.85112 26.1237 4.99319 25.9383 2.93912V2.09595H24.1351C24.589 4.70657 26.1374 6.93691 28.2858 8.28877ZM9.52563 31.6182C8.79642 30.6543 8.40228 29.4749 8.40413 28.2623C8.40413 25.2013 10.8652 22.7194 13.9016 22.7194C14.4674 22.7191 15.0298 22.8067 15.5691 22.9791V16.2766C14.9389 16.1896 14.3029 16.1525 13.6671 16.1662V21.383C13.1275 21.2105 12.5648 21.123 11.9987 21.1234C8.96249 21.1234 6.50155 23.6051 6.50155 26.6664C6.50155 28.8311 7.73161 30.7052 9.52563 31.6182Z" fill="#FF004F"/>
<path d="M24.0356 13.3067C26.5899 15.1473 29.7176 16.2302 33.0962 16.2302V11.0697C31.2103 10.6646 29.5408 9.67098 28.2856 8.28877C26.1371 6.93678 24.589 4.70643 24.1351 2.09595H19.3987V28.2812C19.3879 31.3339 16.9311 33.8056 13.9013 33.8056C12.116 33.8056 10.5298 32.9475 9.52533 31.618C7.73158 30.7052 6.50138 28.831 6.50138 26.6666C6.50138 23.6055 8.96232 21.1235 11.9986 21.1235C12.5803 21.1235 13.141 21.2148 13.6669 21.3831V16.1663C7.14656 16.3022 1.90271 21.6743 1.90271 28.2813C1.90271 31.5795 3.20851 34.5695 5.32792 36.7542C7.23994 38.0486 9.5416 38.8038 12.0181 38.8038C18.6551 38.8038 24.0357 33.3783 24.0357 26.6856L24.0356 13.3067Z" fill="black"/>
<path d="M33.0962 11.0697V9.67462C31.3956 9.67711 29.7285 9.19689 28.2856 8.28883C29.5628 9.69878 31.2447 10.6711 33.0962 11.0699M24.135 2.09586C24.0917 1.84642 24.0585 1.59532 24.0354 1.34317V0.5H17.4956V26.6855C17.4852 29.7379 15.0284 32.2097 11.9984 32.2097C11.1395 32.2109 10.2922 32.0084 9.5252 31.6183C10.5297 32.9476 12.1159 33.8055 13.9012 33.8055C16.9308 33.8055 19.3879 31.3341 19.3986 28.2814V2.096L24.135 2.09586ZM13.6672 16.1662V14.6808C13.1207 14.6056 12.5698 14.5679 12.0183 14.568C5.38057 14.568 0 19.9934 0 26.6855C0 30.8812 2.11463 34.5789 5.32807 36.7539C3.20865 34.5694 1.90285 31.5793 1.90285 28.2812C1.90285 21.6743 7.14656 16.3021 13.6672 16.1662Z" fill="#00F2EA"/>
</g>
<defs>
<clipPath id="clip0_2_249">
<rect width="35" height="40" fill="white" transform="translate(0 0.5)"/>
</clipPath>
</defs>
</svg>
