<svg width="41" height="41" viewBox="0 0 41 41" fill="none" xmlns="http://www.w3.org/2000/svg">
<g clip-path="url(#clip0_2_260)">
<path d="M40.5 20.5C40.5 9.45438 31.5456 0.5 20.5 0.5C9.45437 0.5 0.5 9.45438 0.5 20.5C0.5 30.4825 7.81375 38.7567 17.375 40.257V26.2813H12.2969V20.5H17.375V16.0938C17.375 11.0813 20.3609 8.3125 24.9294 8.3125C27.1175 8.3125 29.4062 8.70313 29.4062 8.70313V13.625H26.8844C24.3998 13.625 23.625 15.1667 23.625 16.7484V20.5H29.1719L28.2852 26.2813H23.625V40.257C33.1862 38.7567 40.5 30.4827 40.5 20.5Z" fill="#1877F2"/>
<path d="M28.2852 26.2812L29.1719 20.5H23.625V16.7484C23.625 15.1666 24.3998 13.625 26.8844 13.625H29.4062V8.70312C29.4062 8.70312 27.1175 8.3125 24.9292 8.3125C20.3609 8.3125 17.375 11.0813 17.375 16.0938V20.5H12.2969V26.2812H17.375V40.257C18.4088 40.419 19.4536 40.5002 20.5 40.5C21.5464 40.5002 22.5912 40.419 23.625 40.257V26.2812H28.2852Z" fill="white"/>
</g>
<defs>
<clipPath id="clip0_2_260">
<rect width="40" height="40" fill="white" transform="translate(0.5 0.5)"/>
</clipPath>
</defs>
</svg>
