<svg width="41" height="41" viewBox="0 0 41 41" fill="none" xmlns="http://www.w3.org/2000/svg">
<g clip-path="url(#clip0_2_254)">
<path d="M31.125 0.5H9.875C4.69733 0.5 0.5 4.69733 0.5 9.875V31.125C0.5 36.3027 4.69733 40.5 9.875 40.5H31.125C36.3027 40.5 40.5 36.3027 40.5 31.125V9.875C40.5 4.69733 36.3027 0.5 31.125 0.5Z" fill="url(#paint0_radial_2_254)"/>
<path d="M31.125 0.5H9.875C4.69733 0.5 0.5 4.69733 0.5 9.875V31.125C0.5 36.3027 4.69733 40.5 9.875 40.5H31.125C36.3027 40.5 40.5 36.3027 40.5 31.125V9.875C40.5 4.69733 36.3027 0.5 31.125 0.5Z" fill="url(#paint1_radial_2_254)"/>
<path d="M20.5014 4.875C16.258 4.875 15.7253 4.89359 14.0588 4.96938C12.3953 5.04563 11.2598 5.30891 10.2664 5.69531C9.23859 6.09438 8.36688 6.62828 7.49844 7.49703C6.62922 8.36562 6.09531 9.23734 5.695 10.2647C5.3075 11.2584 5.04391 12.3944 4.96906 14.057C4.89453 15.7238 4.875 16.2566 4.875 20.5002C4.875 24.7438 4.89375 25.2747 4.96938 26.9412C5.04594 28.6047 5.30922 29.7402 5.69531 30.7336C6.09469 31.7614 6.62859 32.6331 7.49734 33.5016C8.36563 34.3708 9.23734 34.9059 10.2644 35.305C11.2586 35.6914 12.3942 35.9547 14.0573 36.0309C15.7241 36.1067 16.2563 36.1253 20.4995 36.1253C24.7434 36.1253 25.2744 36.1067 26.9409 36.0309C28.6044 35.9547 29.7411 35.6914 30.7353 35.305C31.7627 34.9059 32.6331 34.3708 33.5012 33.5016C34.3705 32.6331 34.9042 31.7614 35.3047 30.7341C35.6887 29.7402 35.9525 28.6044 36.0306 26.9416C36.1055 25.275 36.125 24.7438 36.125 20.5002C36.125 16.2566 36.1055 15.7241 36.0306 14.0573C35.9525 12.3939 35.6887 11.2586 35.3047 10.2652C34.9042 9.23734 34.3705 8.36562 33.5012 7.49703C32.6322 6.62797 31.763 6.09406 30.7344 5.69547C29.7383 5.30891 28.6022 5.04547 26.9387 4.96938C25.272 4.89359 24.7414 4.875 20.4966 4.875H20.5014ZM19.0997 7.69078C19.5158 7.69016 19.98 7.69078 20.5014 7.69078C24.6734 7.69078 25.1678 7.70578 26.8153 7.78063C28.3387 7.85031 29.1656 8.10484 29.7164 8.31875C30.4456 8.60188 30.9655 8.94047 31.512 9.4875C32.0589 10.0344 32.3973 10.5552 32.6813 11.2844C32.8952 11.8344 33.15 12.6613 33.2194 14.1847C33.2942 15.8319 33.3105 16.3266 33.3105 20.4966C33.3105 24.6666 33.2942 25.1614 33.2194 26.8084C33.1497 28.3319 32.8952 29.1587 32.6813 29.7089C32.3981 30.4381 32.0589 30.9573 31.512 31.5039C30.9652 32.0508 30.4459 32.3892 29.7164 32.6725C29.1663 32.8873 28.3387 33.1413 26.8153 33.2109C25.1681 33.2858 24.6734 33.302 20.5014 33.302C16.3292 33.302 15.8347 33.2858 14.1877 33.2109C12.6642 33.1406 11.8373 32.8861 11.2861 32.6722C10.557 32.3889 10.0361 32.0505 9.48922 31.5036C8.94234 30.9567 8.60391 30.4372 8.32 29.7077C8.10609 29.1575 7.85125 28.3306 7.78188 26.8072C7.70703 25.16 7.69203 24.6653 7.69203 20.4927C7.69203 16.32 7.70703 15.828 7.78188 14.1808C7.85156 12.6573 8.10609 11.8305 8.32 11.2797C8.60328 10.5505 8.94234 10.0297 9.48938 9.48281C10.0364 8.93594 10.557 8.59734 11.2862 8.31359C11.837 8.09875 12.6642 7.84484 14.1877 7.77484C15.6291 7.70969 16.1877 7.69016 19.0997 7.68687V7.69078ZM28.842 10.2852C27.8069 10.2852 26.967 11.1242 26.967 12.1595C26.967 13.1947 27.8069 14.0345 28.842 14.0345C29.8772 14.0345 30.717 13.1947 30.717 12.1595C30.717 11.1244 29.8772 10.2845 28.842 10.2845V10.2852ZM20.5014 12.4759C16.0702 12.4759 12.4773 16.0688 12.4773 20.5002C12.4773 24.9316 16.0702 28.5227 20.5014 28.5227C24.9328 28.5227 28.5244 24.9316 28.5244 20.5002C28.5244 16.0689 24.9325 12.4759 20.5011 12.4759H20.5014ZM20.5014 15.2917C23.3778 15.2917 25.7098 17.6234 25.7098 20.5002C25.7098 23.3766 23.3778 25.7086 20.5014 25.7086C17.625 25.7086 15.2931 23.3766 15.2931 20.5002C15.2931 17.6234 17.6248 15.2917 20.5014 15.2917Z" fill="white"/>
</g>
<defs>
<radialGradient id="paint0_radial_2_254" cx="0" cy="0" r="1" gradientUnits="userSpaceOnUse" gradientTransform="translate(11.125 43.5808) rotate(-90) scale(39.643 36.8711)">
<stop stop-color="#FFDD55"/>
<stop offset="0.1" stop-color="#FFDD55"/>
<stop offset="0.5" stop-color="#FF543E"/>
<stop offset="1" stop-color="#C837AB"/>
</radialGradient>
<radialGradient id="paint1_radial_2_254" cx="0" cy="0" r="1" gradientUnits="userSpaceOnUse" gradientTransform="translate(-6.20016 3.38141) rotate(78.681) scale(17.7206 73.045)">
<stop stop-color="#3771C8"/>
<stop offset="0.128" stop-color="#3771C8"/>
<stop offset="1" stop-color="#6600FF" stop-opacity="0"/>
</radialGradient>
<clipPath id="clip0_2_254">
<rect width="40" height="40" fill="white" transform="translate(0.5 0.5)"/>
</clipPath>
</defs>
</svg>
