<svg width="40" height="41" viewBox="0 0 40 41" fill="none" xmlns="http://www.w3.org/2000/svg">
<g clip-path="url(#clip0_2_264)">
<path d="M30.625 0.5H9.375C4.19733 0.5 0 4.69733 0 9.875V31.125C0 36.3027 4.19733 40.5 9.375 40.5H30.625C35.8027 40.5 40 36.3027 40 31.125V9.875C40 4.69733 35.8027 0.5 30.625 0.5Z" fill="white"/>
<path d="M30.625 0.5H9.375C4.19733 0.5 0 4.69733 0 9.875V31.125C0 36.3027 4.19733 40.5 9.375 40.5H30.625C35.8027 40.5 40 36.3027 40 31.125V9.875C40 4.69733 35.8027 0.5 30.625 0.5Z" fill="#0A66C2"/>
<path d="M28.8617 34.5133H33.4352C33.6009 34.5133 33.7598 34.4475 33.877 34.3303C33.9942 34.2131 34.0601 34.0542 34.0602 33.8884L34.0625 24.2256C34.0625 19.1752 32.9742 15.2931 27.0722 15.2931C24.8286 15.2097 22.7128 16.3663 21.5711 18.2975C21.5655 18.3069 21.557 18.3142 21.5469 18.3183C21.5368 18.3224 21.5256 18.3231 21.5151 18.3202C21.5045 18.3173 21.4952 18.3111 21.4885 18.3025C21.4819 18.2938 21.4782 18.2833 21.4781 18.2723V16.3844C21.4781 16.2186 21.4123 16.0596 21.2951 15.9424C21.1779 15.8252 21.0189 15.7594 20.8531 15.7594H16.513C16.3472 15.7594 16.1882 15.8252 16.071 15.9424C15.9538 16.0596 15.888 16.2186 15.888 16.3844V33.8875C15.888 34.0533 15.9538 34.2122 16.071 34.3294C16.1882 34.4467 16.3472 34.5125 16.513 34.5125H21.0861C21.2519 34.5125 21.4108 34.4467 21.528 34.3294C21.6452 34.2122 21.7111 34.0533 21.7111 33.8875V25.2355C21.7111 22.7891 22.1752 20.4198 25.2081 20.4198C28.198 20.4198 28.2367 23.2192 28.2367 25.3939V33.8883C28.2367 34.054 28.3026 34.213 28.4198 34.3302C28.537 34.4474 28.696 34.5133 28.8617 34.5133ZM5.9375 9.81687C5.9375 11.6706 7.46359 13.1959 9.3175 13.1959C11.1709 13.1958 12.6961 11.6695 12.6961 9.81609C12.6958 7.96266 11.1705 6.4375 9.31687 6.4375C7.46281 6.4375 5.9375 7.96312 5.9375 9.81687ZM7.02484 34.5133H11.6041C11.7698 34.5133 11.9288 34.4474 12.046 34.3302C12.1632 34.213 12.2291 34.054 12.2291 33.8883V16.3844C12.2291 16.2186 12.1632 16.0596 12.046 15.9424C11.9288 15.8252 11.7698 15.7594 11.6041 15.7594H7.02484C6.85908 15.7594 6.70011 15.8252 6.5829 15.9424C6.46569 16.0596 6.39984 16.2186 6.39984 16.3844V33.8883C6.39984 34.054 6.46569 34.213 6.5829 34.3302C6.70011 34.4474 6.85908 34.5133 7.02484 34.5133Z" fill="white"/>
</g>
<defs>
<clipPath id="clip0_2_264">
<rect width="40" height="40" fill="white" transform="translate(0 0.5)"/>
</clipPath>
</defs>
</svg>
