<svg width="40" height="41" viewBox="0 0 40 41" fill="none" xmlns="http://www.w3.org/2000/svg">
<path d="M27.5933 22.0099L26.835 22.7649C26.835 22.7649 25.03 24.5582 20.105 19.6616C15.18 14.7649 16.985 12.9716 16.985 12.9716L17.4616 12.4949C18.64 11.3249 18.7516 9.44489 17.7233 8.07155L15.6233 5.26655C14.35 3.56655 11.8916 3.34155 10.4333 4.79155L7.81665 7.39155C7.09498 8.11155 6.61165 9.04155 6.66998 10.0749C6.81998 12.7199 8.01665 18.4082 14.69 25.0449C21.7683 32.0816 28.41 32.3616 31.125 32.1082C31.985 32.0282 32.7316 31.5916 33.3333 30.9916L35.7 28.6382C37.3 27.0499 36.85 24.3249 34.8033 23.2132L31.62 21.4816C30.2766 20.7532 28.6433 20.9666 27.5933 22.0099Z" fill="#14FFB9"/>
</svg>
